<?xml version="1.0" encoding="utf-8"?>
<!-- Generator: Adobe Illustrator 16.0.0, SVG Export Plug-In . SVG Version: 6.00 Build 0)  -->
<!DOCTYPE svg PUBLIC "-//W3C//DTD SVG 1.1//EN" "http://www.w3.org/Graphics/SVG/1.1/DTD/svg11.dtd">
<svg version="1.1" id="Layer_1" xmlns="http://www.w3.org/2000/svg" xmlns:xlink="http://www.w3.org/1999/xlink" x="0px" y="0px"
	 width="569.17px" height="119.816px" viewBox="0 0 569.17 119.816" enable-background="new 0 0 569.17 119.816"
	 xml:space="preserve">
<g>
	<g>
		<polygon fill="#034EA2" points="430.701,33.957 430.701,61.063 436.915,61.063 436.915,50.958 442.426,50.958 442.426,45.415 
			437.032,45.415 437.032,33.957 		"/>
		<path fill="#034EA2" d="M406.162,85.457V63.279h30.871v22.177H406.162z M430.948,80.043V68.692h-18.702v11.351H430.948z"/>
		<path fill="#034EA2" d="M415.208,34.942c0,0-0.83,14.66,10.475,20.737l-3.25,4.717c0,0-8.28-5.742-10.156-12.025
			c-1.876,6.283-10.157,12.025-10.157,12.025l-3.249-4.717c11.304-6.077,10.475-20.737,10.475-20.737H415.208z"/>
	</g>
	<g>
		<path fill="#034EA2" d="M465.176,73.999"/>
		<path fill="#034EA2" d="M465.176,73.999"/>
		<path fill="#034EA2" d="M462.566,61.547"/>
		<polygon fill="#034EA2" points="482.67,33.957 482.67,61.063 476.457,61.063 476.457,48.618 468.366,48.618 468.366,43.073 
			476.34,43.073 476.34,33.957 		"/>
		<path fill="#034EA2" d="M466.347,87.241c-9.624,0-17.425-5.93-17.425-13.242c0-7.314,7.802-13.243,17.425-13.243
			s17.425,5.929,17.425,13.243C483.772,81.311,475.97,87.241,466.347,87.241z M477.186,73.999c0-4.085-4.854-7.398-10.839-7.398
			c-5.985,0-10.838,3.313-10.838,7.398c0,4.085,4.853,7.397,10.838,7.397C472.332,81.396,477.186,78.083,477.186,73.999z"/>
		<path fill="#034EA2" d="M456.028,48.371c-1.876,6.283-9.463,11.54-9.463,11.54l-3.249-4.717
			c10.611-5.592,9.781-20.252,9.781-20.252h5.862c0,0-0.83,14.66,9.78,20.252l-3.249,4.717
			C465.49,59.911,457.904,54.654,456.028,48.371z"/>
	</g>
	<g>
		<rect x="489.884" y="34.871" fill="#034EA2" width="24.41" height="5.553"/>
		<polygon fill="#034EA2" points="527.142,33.957 527.142,67.588 520.928,67.588 520.928,50.01 512.062,50.01 512.062,44.465 
			520.811,44.465 520.811,33.957 		"/>
		<path fill="#034EA2" d="M502.136,49.763c-1.876,6.284-11.117,12.153-11.117,12.153l-3.249-4.717
			c12.265-6.206,11.435-22.257,11.435-22.257h5.862c0,0-0.83,16.051,11.464,22.349l-3.248,4.717
			C513.283,62.008,504.012,56.047,502.136,49.763z"/>
		<polygon fill="#034EA2" points="496.058,63.279 496.058,85.457 527.704,85.457 527.704,80.082 502.141,80.082 502.141,63.279 		
			"/>
	</g>
	<g>
		<rect x="532.69" y="34.871" fill="#034EA2" width="25.097" height="5.553"/>
		<polygon fill="#034EA2" points="569.17,33.957 569.17,85.536 562.957,85.536 562.84,33.957 		"/>
		<path fill="#034EA2" d="M550.799,38.069c0,0,1.091,27.737-19.869,33.447l2.821,5.453c0,0,23.258-3.821,24.034-38.9H550.799z"/>
	</g>
</g>
<path fill="#034EA2" d="M360.666,28.525c-4.908-28.176-89.569-36.97-189.107-19.64C129.756,16.165,92.014,26.906,62.621,38.99
	c4.514,0.1,7.864,1.134,9.895,3.162c1.591,1.593,2.396,3.778,2.396,6.5v2.795h-9.759v-2.466c0-2.057-1.234-3.332-3.42-3.332
	c-1.833,0-2.966,0.829-3.331,2.461c-0.1,0.455-0.13,1.236,0.044,1.946c1.044,4.272,15.533,6.921,17.115,14.803
	c0.205,1.013,0.487,3.181,0.044,6.287c-0.903,6.355-6.489,8.808-13.595,8.808c-9.918,0-13.949-4.701-13.949-11.178l0.008-3.064
	h10.462l0.006,3.818c0,2.146,1.56,3.332,3.684,3.332c2.015,0,3.188-0.812,3.595-2.471c0.191-0.763,0.271-1.882-0.071-2.744
	c-1.936-4.858-15.47-7.128-17.134-14.98c-0.371-1.767-0.401-3.268-0.094-5.168c0.168-1.03,0.483-1.909,0.865-2.716
	C16.775,60.031-2.298,76.807,0.222,91.293c4.911,28.178,89.572,36.965,189.107,19.636c43.751-7.619,83.084-19.018,113.024-31.794
	c-0.437,0.022-0.852,0.068-1.303,0.068c-6.813,0-12.895-2.552-13.527-9.516c-0.113-1.266-0.133-1.797-0.136-2.52l0.002-16.007
	c0-0.688,0.083-1.9,0.158-2.526c0.808-6.731,6.129-9.506,13.505-9.506c5.704,0,12.701,1.637,13.473,9.51
	c0.1,0.987,0.088,2.042,0.087,2.391c0,0.004,0,0.004,0,0.009v1.503h-9.861v-2.248v-0.009c0-0.049-0.012-0.892-0.121-1.419
	c-0.162-0.803-0.848-2.665-3.656-2.665c-2.771,0-3.49,1.867-3.672,2.667c-0.101,0.442-0.152,1.074-0.152,1.775v17.396
	c-0.006,0.605,0.022,1.075,0.084,1.426c0.049,0.274,0.545,2.669,3.774,2.669c3.204,0,3.698-2.395,3.742-2.669
	c0.085-0.472,0.098-1.035,0.092-1.426v-5.39h-3.879v-5.806h13.716c0,0,0,10.325,0,10.327c-0.005,0.703-0.015,1.225-0.131,2.518
	c-0.167,1.827-0.743,3.373-1.644,4.694C344.669,59.307,363.153,42.8,360.666,28.525z M102.574,78.465l-4.996-33.931H97.4
	l-5.121,33.931H81.752l7.079-38.319H106l7.034,38.319H102.574z M153.193,78.465l-0.232-33.273h-0.17l-6.194,33.273h-9.875
	l-6.162-33.273h-0.174l-0.225,33.273h-9.789l0.847-38.319h15.741l4.585,28.466h0.223l4.594-28.466H162.1l0.843,38.319H153.193z
	 M199.279,71.039c-1.052,7.423-8.323,8.718-13.462,8.718c-8.531,0-13.807-3.646-13.807-11.069l0.003-3.028h10.338l0.009,3.773
	c0,2.047,1.444,3.301,3.671,3.301c1.99,0,3.153-0.798,3.555-2.439c0.188-0.763,0.269-1.877-0.066-2.72
	c-1.9-4.766-15.331-7.098-16.964-14.831c-0.374-1.75-0.4-3.24-0.094-5.118c1.137-7.011,7.864-8.467,13.279-8.467
	c4.84,0,8.363,1.058,10.478,3.172c1.576,1.576,2.376,3.742,2.376,6.436v2.766h-9.668v-2.44c0-2.087-1.296-3.296-3.38-3.296
	c-1.847,0-2.963,0.821-3.328,2.437c-0.074,0.342-0.148,1.136,0.048,1.925c1.034,4.251,15.397,6.847,16.972,14.653
	C199.439,65.811,199.716,67.949,199.279,71.039z M235.082,67.559c0.015,0.718-0.057,2.155-0.096,2.521
	c-0.59,6.313-5.104,9.523-13.387,9.523c-8.31,0-12.828-3.21-13.417-9.523c-0.039-0.366-0.111-1.802-0.093-2.516V40.141h9.889v28.289
	c-0.008,0.633,0.022,1.102,0.085,1.427c0.123,0.629,0.749,2.672,3.537,2.672c2.783,0,3.411-2.042,3.542-2.667
	c0.057-0.33,0.086-0.825,0.086-1.432V40.141h9.855C235.082,40.141,235.082,67.564,235.082,67.559z M277.691,78.073h-13.764
	l-9.234-30.35h-0.156l0.514,30.35h-9.592V40.146h14.337l8.538,29.157h0.202l-0.507-29.157h9.662V78.073z"/>
</svg>
