<svg width="40" height="9" viewBox="0 0 40 9" fill="none" xmlns="http://www.w3.org/2000/svg">
<g clip-path="url(#clip0_116_139)">
<path d="M26.5907 0.00335693H33.558V1.28934H30.7941V8.05472H29.4121V1.28934H26.5907V0.00335693Z" fill="black"/>
<path d="M15.1321 0.00335693V1.28934H9.54734V3.35809H14.0386V4.64407H9.54734V6.76874H15.1321V8.05472H8.1654V1.28934H8.16483V0.00335693H15.1321Z" fill="black"/>
<path d="M18.6111 0.00671387H16.8026L23.2803 8.05808H25.0941L21.8548 4.03517L25.0889 0.0128565L23.2803 0.0156515L20.9494 2.91063L18.6111 0.00671387Z" fill="black"/>
<path d="M20.4669 5.75786L19.5612 4.63177L16.7974 8.06423H18.6111L20.4669 5.75786Z" fill="black"/>
<path fill-rule="evenodd" clip-rule="evenodd" d="M8.21382 8.05472L1.72733 0H-9.15527e-05V8.05136H1.38185V1.72097L6.47775 8.05472H8.21382Z" fill="black"/>
<path d="M33.8687 8.00557C33.7674 8.00557 33.6813 7.97051 33.6093 7.90039C33.5372 7.83027 33.5015 7.74537 33.5025 7.64481C33.5015 7.547 33.5372 7.46303 33.6093 7.39291C33.6813 7.32279 33.7674 7.28772 33.8687 7.28772C33.966 7.28772 34.0512 7.32279 34.1233 7.39291C34.1964 7.46303 34.2328 7.547 34.2338 7.64481C34.2328 7.71123 34.216 7.77213 34.1823 7.82656C34.1476 7.88193 34.1037 7.9253 34.0483 7.95667C33.994 7.98897 33.9341 8.00557 33.8687 8.00557Z" fill="black"/>
<path d="M36.2273 4.61371H36.8397V6.97303C36.8388 7.18986 36.7919 7.37532 36.7002 7.53126C36.6075 7.68719 36.4792 7.80621 36.3144 7.89018C36.1506 7.97321 35.9586 8.01567 35.7404 8.01567C35.5409 8.01567 35.3621 7.97968 35.203 7.90956C35.0438 7.83943 34.9174 7.73425 34.8247 7.59584C34.731 7.45743 34.6851 7.2849 34.6851 7.07822H35.2985C35.2994 7.16864 35.32 7.24706 35.3593 7.31257C35.3986 7.37808 35.4529 7.4279 35.5222 7.46297C35.5924 7.49803 35.673 7.51557 35.7638 7.51557C35.8621 7.51557 35.9464 7.49526 36.0147 7.45374C36.0831 7.41314 36.1355 7.35225 36.1721 7.27105C36.2076 7.19078 36.2264 7.09113 36.2273 6.97303V4.61371Z" fill="black"/>
<path d="M39.3594 5.53644C39.3445 5.39343 39.2789 5.28178 39.1647 5.20243C39.0495 5.12216 38.9006 5.08248 38.718 5.08248C38.5898 5.08248 38.4793 5.10186 38.3875 5.13969C38.2957 5.17844 38.2246 5.23011 38.1758 5.29562C38.1272 5.36113 38.1029 5.43587 38.1009 5.51984C38.1009 5.58996 38.1178 5.65086 38.1506 5.70161C38.1834 5.75327 38.2273 5.79664 38.2845 5.83171C38.3406 5.86769 38.4034 5.89721 38.4718 5.9212C38.541 5.94519 38.6104 5.9655 38.6796 5.98211L38.9989 6.06053C39.1272 6.09005 39.2518 6.12974 39.3707 6.18048C39.4896 6.23031 39.5973 6.29397 39.6918 6.37055C39.7864 6.44714 39.8613 6.53941 39.9166 6.64737C39.9718 6.75531 39.9999 6.88172 39.9999 7.02751C39.9999 7.22404 39.9493 7.39658 39.8472 7.54606C39.7452 7.6946 39.5982 7.81087 39.4053 7.89484C39.2133 7.97788 38.9811 8.02032 38.7077 8.02032C38.4437 8.02032 38.2133 7.97973 38.0195 7.89853C37.8248 7.81826 37.673 7.70015 37.5635 7.54513C37.4539 7.39013 37.3949 7.20097 37.3865 6.9786H37.9933C38.0017 7.09486 38.0392 7.19175 38.1029 7.27018C38.1674 7.34768 38.2517 7.40489 38.3547 7.44364C38.4587 7.48147 38.5747 7.50085 38.7031 7.50085C38.837 7.50085 38.9549 7.48054 39.057 7.44087C39.1581 7.40119 39.2377 7.34584 39.2948 7.27387C39.3529 7.20282 39.3819 7.11886 39.3829 7.0229C39.3819 6.93524 39.3556 6.86234 39.3051 6.80513C39.2536 6.74793 39.1824 6.69995 39.0916 6.6612C38.9999 6.62245 38.8931 6.58739 38.7714 6.55694L38.3838 6.45913C38.1038 6.38809 37.8818 6.28014 37.7198 6.13527C37.557 5.99041 37.4764 5.79849 37.4764 5.55767C37.4764 5.36022 37.5307 5.18676 37.6403 5.0382C37.7488 4.88965 37.8978 4.77431 38.086 4.69219C38.2751 4.60915 38.4886 4.56854 38.7264 4.56854C38.968 4.56854 39.1796 4.60915 39.3622 4.69219C39.5448 4.77431 39.6881 4.88873 39.792 5.0345C39.8959 5.18029 39.9503 5.34729 39.9531 5.53644H39.3594Z" fill="black"/>
</g>
<defs>
<clipPath id="clip0_116_139">
<rect width="40" height="8.12183" fill="white"/>
</clipPath>
</defs>
</svg>
