<?xml version="1.0" encoding="UTF-8" standalone="no"?>
<svg
   xmlns:dc="http://purl.org/dc/elements/1.1/"
   xmlns:cc="http://creativecommons.org/ns#"
   xmlns:rdf="http://www.w3.org/1999/02/22-rdf-syntax-ns#"
   xmlns:svg="http://www.w3.org/2000/svg"
   xmlns="http://www.w3.org/2000/svg"
   xmlns:sodipodi="http://sodipodi.sourceforge.net/DTD/sodipodi-0.dtd"
   xmlns:inkscape="http://www.inkscape.org/namespaces/inkscape"
   width="249.99998"
   height="47.279827"
   viewBox="0 0 199.99999 37.82386"
   version="1.1"
   id="svg2"
   inkscape:version="0.91 r13725"
   sodipodi:docname="Samsung C&amp;T hangul logo.svg">
  <metadata
     id="metadata250">
    <rdf:RDF>
      <cc:Work
         rdf:about="">
        <dc:format>image/svg+xml</dc:format>
        <dc:type
           rdf:resource="http://purl.org/dc/dcmitype/StillImage" />
        <dc:title></dc:title>
      </cc:Work>
    </rdf:RDF>
  </metadata>
  <sodipodi:namedview
     pagecolor="#ffffff"
     bordercolor="#666666"
     borderopacity="1"
     objecttolerance="10"
     gridtolerance="10"
     guidetolerance="10"
     inkscape:pageopacity="0"
     inkscape:pageshadow="2"
     inkscape:window-width="640"
     inkscape:window-height="480"
     id="namedview248"
     showgrid="false"
     units="px"
     inkscape:zoom="0.60353776"
     inkscape:cx="308.43028"
     inkscape:cy="24.101451"
     inkscape:window-x="0"
     inkscape:window-y="0"
     inkscape:window-maximized="0"
     inkscape:current-layer="svg2"
     fit-margin-top="1"
     fit-margin-right="1"
     fit-margin-left="1"
     fit-margin-bottom="1" />
  <defs
     id="defs4">
    <clipPath
       id="clip1">
      <path
         d="m 0,807.875 1293.4492,0 0,-807.875 L 0,0 Z"
         id="path63"
         inkscape:connector-curvature="0" />
    </clipPath>
    <clipPath
       id="clip2">
      <path
         d="m 0,807.875 1293.4492,0 0,-807.875 L 0,0 Z"
         id="path66"
         inkscape:connector-curvature="0" />
    </clipPath>
    <clipPath
       id="clip3">
      <path
         d="m 0,807.875 1293.4492,0 0,-807.875 L 0,0 Z"
         id="path69"
         inkscape:connector-curvature="0" />
    </clipPath>
  </defs>
  <g
     id="g3660"
     transform="matrix(1.0226657,0,0,1.0226657,-228.01062,-394.17935)">
    <g
       clip-path="url(#clip1)"
       id="g84"
       style="clip-rule:nonzero">
      <path
         style="fill:#004ca1;fill-opacity:1;fill-rule:nonzero;stroke:none"
         d="m 314.80469,386.72656 c -20.80078,-2.07031 -51.17969,2.40625 -72.34375,10.95313 l -1.27735,0.55078 c 0.38672,-0.0195 0.66407,-0.008 0.66407,-0.008 3.51953,0.0976 3.30859,2.29296 3.30859,2.29296 l 0,1.33204 -2.80469,0 0,-0.90625 c 0,-0.64454 -0.78515,-0.69141 -0.78515,-0.69141 -0.59766,0 -0.73829,0.41406 -0.73829,0.41406 -0.33593,0.61719 0.23438,1.16016 0.23438,1.16016 0.29297,0.3125 1.75781,0.98828 1.75781,0.98828 0.47266,0.18359 1.22266,0.66016 1.22266,0.66016 1.4375,0.85546 1.30859,2.49609 1.30859,2.49609 l 0,1.07031 c -0.16797,2.67188 -3.85156,2.58985 -3.85156,2.58985 -3.84375,0 -3.75781,-2.52344 -3.75781,-2.52344 l 0,-1.31641 2.99218,0 0,0.90625 c 0,0.77344 0.75,0.8086 0.75,0.8086 0.8125,0.0312 0.88672,-0.75782 0.88672,-0.75782 0.11328,-0.76953 -0.73437,-1.25 -0.73437,-1.25 -0.83985,-0.4414 -2.23047,-1.1875 -2.23047,-1.1875 -0.69531,-0.44531 -0.97266,-0.85547 -0.97266,-0.85547 -0.5,-0.625 -0.46093,-1.58984 -0.46093,-1.58984 l 0,-0.84375 c 0,-1.15625 0.3125,-1.48828 0.3125,-1.48828 0.004,-0.008 0.008,-0.0117 0.0156,-0.0195 -20.72266,9.67969 -18.35547,19.74609 0.94922,21.62109 21.08203,2.03906 52.91016,-2.02734 74.3125,-11.58203 -0.0508,0 -0.0898,0.0117 -0.14063,0.0117 0,0 -3.6289,0.29297 -3.71093,-2.63281 l 0,-5.64844 c 0,0 -0.44922,-3.11719 3.60547,-3.11719 0,0 2.64062,-0.082 3.34765,1.49219 0,0 0.33985,0.41406 0.25391,2.14844 l -2.82031,0 0,-0.89453 c 0,0 -0.004,-0.70704 -0.74219,-0.70704 0,0 -0.75781,0.0274 -0.75781,0.625 l 0,5.84766 c 0,0 -0.0312,0.78516 0.82421,0.78516 0,0 0.70704,-0.0156 0.70704,-0.84766 l 0,-1.6875 -0.77344,0 0,-1.56641 3.625,0 0,3.31641 c 0,0 -0.008,0.69141 -0.29688,1.10547 0,0 -0.22265,0.32031 -0.34765,0.46484 l 1.17187,-0.58984 c 18.97266,-9.72266 16.58985,-19.01172 -2.70312,-20.92969 m -61.28907,22.51953 -1.08984,-8.27343 -0.25391,0 -1.08203,8.27343 -2.99609,0 1.85156,-10.66406 4.71875,0 1.84766,10.66406 z m 15.10938,0.0156 -0.0625,-8.04297 -0.19141,0 -1.46093,8.03906 -2.91407,0 -1.47656,-8.03906 -0.21484,0 -0.0312,8.04297 -2.77735,0 0.23047,-10.67188 4.69141,0 0.90234,5.83594 0.21485,0 0.9414,-5.83594 4.64453,0 0.29688,10.67188 z m 13.52344,-3.29297 0,1.07031 c -0.17188,2.67188 -3.84375,2.58985 -3.84375,2.58985 -3.84766,0 -3.75782,-2.52344 -3.75782,-2.52344 l 0,-1.31641 2.98438,0 0,0.90625 c 0,0.77344 0.75,0.8086 0.75,0.8086 0.82031,0.0312 0.88672,-0.75782 0.88672,-0.75782 0.11328,-0.76953 -0.73438,-1.25 -0.73438,-1.25 -0.83203,-0.4414 -2.23828,-1.1875 -2.23828,-1.1875 -0.6875,-0.44531 -0.96094,-0.85547 -0.96094,-0.85547 -0.49609,-0.625 -0.46093,-1.58984 -0.46093,-1.58984 l 0,-0.84375 c 0,-1.15625 0.3125,-1.48828 0.3125,-1.48828 0.79297,-1.48438 3.5625,-1.30859 3.5625,-1.30859 3.52343,0.0976 3.30859,2.29296 3.30859,2.29296 l 0.004,1.33204 -2.80078,0 0,-0.90625 c 0,-0.64454 -0.79297,-0.69141 -0.79297,-0.69141 -0.59766,0 -0.73438,0.41406 -0.73438,0.41406 -0.33594,0.61719 0.23438,1.16016 0.23438,1.16016 0.28906,0.3125 1.75,0.98828 1.75,0.98828 0.47656,0.18359 1.23828,0.66016 1.23828,0.66016 1.42969,0.85546 1.29297,2.49609 1.29297,2.49609 m 10.99218,0.71484 c 0,2.9375 -3.71093,2.89453 -3.71093,2.89453 -4.27735,0 -3.96094,-3.03125 -3.96094,-3.03125 l 0,-8.0039 3.04687,0 0.0156,8.07031 c 0,0.90234 0.85937,0.85938 0.85937,0.85938 0.8125,0 0.76954,-0.87891 0.76954,-0.87891 l 0,-8.05078 2.98046,0 z m 12.83204,2.57813 -3.32422,0 -2.95313,-6.52344 -0.125,0 0.16797,6.52344 -2.78516,0 0,-10.66797 3.41797,0 2.85547,6.46094 0.1211,0 -0.19532,-6.46094 2.82032,0 z"
         id="path86"
         inkscape:connector-curvature="0" />
    </g>
    <path
       style="fill:#004ca1;fill-opacity:1;fill-rule:nonzero;stroke:none"
       d="m 400.44922,403.00781 -14.42969,0 0,1.92578 14.42969,0 z"
       id="path88"
       inkscape:connector-curvature="0" />
    <path
       style="fill:#004ca1;fill-opacity:1;fill-rule:nonzero;stroke:none"
       d="m 363.52734,394.65234 0,10.125 2.48828,0 0,-4.0625 2.11329,0 0,-2.0664 -2.11329,0 0,-3.9961 z"
       id="path90"
       inkscape:connector-curvature="0" />
    <path
       style="fill:#004ca1;fill-opacity:1;fill-rule:nonzero;stroke:none"
       d="m 354.32031,405.60937 11.69531,0 0,8.28516 -11.69531,0 z m 9.30078,2.01954 -6.91406,0 0,4.24218 6.91406,0 z"
       id="path92"
       inkscape:connector-curvature="0" />
    <path
       style="fill:#004ca1;fill-opacity:1;fill-rule:nonzero;stroke:none"
       d="m 382.86328,394.65234 0,10.125 -2.44531,0 0,-4.0625 -3.17188,0 0,-2.0625 3.13282,0 0,-4 z"
       id="path94"
       inkscape:connector-curvature="0" />
    <g
       clip-path="url(#clip2)"
       id="g96"
       style="clip-rule:nonzero">
      <path
         style="fill:#004ca1;fill-opacity:1;fill-rule:nonzero;stroke:none"
         d="m 376.73437,414.41797 c -3.57812,0 -6.47656,-2.09766 -6.47656,-4.6875 0,-2.58985 2.89844,-4.6875 6.47656,-4.6875 3.58594,0 6.48829,2.09765 6.48829,4.6875 0,2.58984 -2.90235,4.6875 -6.48829,4.6875 m 4.03907,-4.6875 c 0,-1.44141 -1.8125,-2.61719 -4.03907,-2.61719 -2.22265,0 -4.02343,1.17578 -4.02343,2.61719 0,1.44531 1.80078,2.62109 4.02343,2.62109 2.22657,0 4.03907,-1.17578 4.03907,-2.62109"
         id="path98"
         inkscape:connector-curvature="0" />
      <path
         style="fill:#004ca1;fill-opacity:1;fill-rule:nonzero;stroke:none"
         d="m 357.65625,395.01953 c 0,0 -0.32031,5.48047 4.10937,7.74609 l -1.27734,1.76954 c 0,0 -3.24609,-2.15235 -3.98437,-4.4961 -0.73438,2.34375 -3.98438,4.4961 -3.98438,4.4961 l -1.27734,-1.76954 c 4.4414,-2.26562 4.11718,-7.74609 4.11718,-7.74609 z"
         id="path100"
         inkscape:connector-curvature="0" />
      <path
         style="fill:#004ca1;fill-opacity:1;fill-rule:nonzero;stroke:none"
         d="m 373.04297,400.03906 c -0.73828,2.34375 -3.71094,4.3086 -3.71094,4.3086 l -1.27734,-1.76563 c 4.16406,-2.08203 3.83593,-7.5625 3.83593,-7.5625 l 2.29688,0 c 0,0 -0.32422,5.48047 3.84375,7.5625 l -1.27734,1.76563 c 0,0 -2.97657,-1.96485 -3.71094,-4.3086"
         id="path102"
         inkscape:connector-curvature="0" />
    </g>
    <path
       style="fill:#004ca1;fill-opacity:1;fill-rule:nonzero;stroke:none"
       d="m 413.14453,394.65234 0,12.48047 2.48438,0 0,-6.41797 2.11328,0 0,-2.0664 -2.11328,0 0,-3.9961 z"
       id="path104"
       inkscape:connector-curvature="0" />
    <g
       clip-path="url(#clip3)"
       id="g106"
       style="clip-rule:nonzero">
      <path
         style="fill:#004ca1;fill-opacity:1;fill-rule:nonzero;stroke:none"
         d="m 407.27344,395.01953 c 0,0 -0.32813,5.48047 4.11328,7.74609 l -1.28125,1.76954 c 0,0 -3.25,-2.15235 -3.98828,-4.4961 -0.73438,2.34375 -3.98047,4.4961 -3.98047,4.4961 l -1.27735,-1.76954 c 4.4375,-2.26562 4.11719,-7.74609 4.11719,-7.74609 z"
         id="path108"
         inkscape:connector-curvature="0" />
    </g>
    <path
       style="fill:#004ca1;fill-opacity:1;fill-rule:nonzero;stroke:none"
       d="m 406.69922,405.60156 -2.39063,0 0,8.29297 2.39063,0 z"
       id="path110"
       inkscape:connector-curvature="0" />
    <path
       style="fill:#004ca1;fill-opacity:1;fill-rule:nonzero;stroke:none"
       d="m 405.58203,413.89453 10.03516,0 0,-2.05469 -10.03516,0 z"
       id="path112"
       inkscape:connector-curvature="0" />
    <path
       style="fill:#004ca1;fill-opacity:1;fill-rule:nonzero;stroke:none"
       d="m 394.35547,406.39453 -2.2461,0 0,-1.67187 2.2461,0 z"
       id="path114"
       inkscape:connector-curvature="0" />
    <path
       style="fill:#004ca1;fill-opacity:1;fill-rule:nonzero;stroke:none"
       d="m 399.08984,395.17969 -11.70703,0 0,1.88281 11.70703,0 z"
       id="path116"
       inkscape:connector-curvature="0" />
    <path
       style="fill:#004ca1;fill-opacity:1;fill-rule:nonzero;stroke:none"
       d="m 399.08984,399.94922 -11.70703,0 0,1.88281 11.70703,0 z"
       id="path118"
       inkscape:connector-curvature="0" />
    <path
       style="fill:#004ca1;fill-opacity:1;fill-rule:nonzero;stroke:none"
       d="m 399.08984,406.01562 -11.70703,0 0,1.87891 11.70703,0 z"
       id="path120"
       inkscape:connector-curvature="0" />
    <path
       style="fill:#004ca1;fill-opacity:1;fill-rule:nonzero;stroke:none"
       d="m 399.08984,408.87109 -11.70703,0 0,1.87891 11.70703,0 z"
       id="path122"
       inkscape:connector-curvature="0" />
    <path
       style="fill:#004ca1;fill-opacity:1;fill-rule:nonzero;stroke:none"
       d="m 399.08984,412.01172 -11.70703,0 0,1.8789 11.70703,0 z"
       id="path124"
       inkscape:connector-curvature="0" />
    <path
       style="fill:#004ca1;fill-opacity:1;fill-rule:nonzero;stroke:none"
       d="m 399.08984,406.83594 -2.34765,0 0,3.90625 2.34765,0 z"
       id="path126"
       inkscape:connector-curvature="0" />
    <path
       style="fill:#004ca1;fill-opacity:1;fill-rule:nonzero;stroke:none"
       d="m 399.08984,396.79687 -2.34765,0 0,3.91407 2.34765,0 z"
       id="path128"
       inkscape:connector-curvature="0" />
    <path
       style="fill:#004ca1;fill-opacity:1;fill-rule:nonzero;stroke:none"
       d="m 389.73047,409.34766 -2.34766,0 0,3.91015 2.34766,0 z"
       id="path130"
       inkscape:connector-curvature="0" />
    <path
       style="fill:#004ca1;fill-opacity:1;fill-rule:nonzero;stroke:none"
       d="m 389.73047,396.5 -2.34766,0 0,3.91406 2.34766,0 z"
       id="path132"
       inkscape:connector-curvature="0" />
  </g>
</svg>
