<svg width="160" height="128" viewBox="0 0 54 40" fill="none" xmlns="http://www.w3.org/2000/svg">
<g clip-path="url(#clip0_116_155)">
<path d="M45.923 22.9908C44.0623 23.0005 42.4452 23.4486 41.0911 24.1111C40.5942 23.1271 40.0974 22.2504 40.0097 21.6074C39.9123 20.8573 39.7954 20.3994 39.9123 19.5032C40.0292 18.6069 40.5553 17.3307 40.5455 17.2333C40.5358 17.1359 40.4286 16.678 39.357 16.6683C38.2854 16.6586 37.36 16.8729 37.2528 17.1554C37.1456 17.4379 36.9411 18.0809 36.8047 18.7433C36.6196 19.7175 34.6615 23.1953 33.5411 25.0171C33.1807 24.3059 32.869 23.6824 32.8008 23.1856C32.7034 22.4355 32.5864 21.9776 32.7034 21.0814C32.8203 20.1851 33.3463 18.9089 33.3366 18.8115C33.3268 18.7141 33.2197 18.2562 32.1481 18.2465C31.0765 18.2367 30.151 18.4511 30.0438 18.7336C29.9367 19.0161 29.8198 19.6785 29.5957 20.3215C29.3716 20.9644 26.7706 26.7706 26.0886 28.2708C25.7379 29.0404 25.4359 29.6542 25.2216 30.0731C25.2216 30.0731 25.2119 30.1023 25.1826 30.151C24.9976 30.5115 24.8904 30.7063 24.8904 30.7063C24.8904 30.7063 24.8904 30.7063 24.8904 30.716C24.7443 30.9791 24.5884 31.2226 24.5105 31.2226C24.452 31.2226 24.3449 30.5212 24.5299 29.5665C24.9196 27.5499 25.8451 24.4131 25.8354 24.3059C25.8354 24.2474 26.0107 23.7019 25.2314 23.4194C24.4715 23.1369 24.1987 23.6045 24.1305 23.6045C24.0623 23.6045 24.0136 23.7701 24.0136 23.7701C24.0136 23.7701 24.8612 20.2436 22.3965 20.2436C20.8573 20.2436 18.7336 21.9289 17.6814 23.4486C17.019 23.8091 15.6064 24.5787 14.0964 25.4067C13.5217 25.7282 12.9274 26.0497 12.3721 26.3517C12.3332 26.3127 12.2942 26.264 12.2552 26.225C9.27422 23.0395 3.76034 20.7891 3.99415 16.5124C4.08182 14.9537 4.61762 10.8622 14.5835 5.89382C22.7862 1.85096 29.3132 2.97127 30.4432 5.45544C32.0604 9.00147 26.9459 15.587 18.4705 16.5417C15.2362 16.9021 13.5412 15.6551 13.1125 15.1875C12.6644 14.7004 12.5962 14.6712 12.4306 14.7686C12.1578 14.9148 12.3332 15.3531 12.4306 15.6064C12.6839 16.2689 13.7262 17.4379 15.4895 18.0127C17.0482 18.5192 20.8378 18.8018 25.4262 17.0287C30.5601 15.0414 34.5738 9.51779 33.395 4.89041C32.2163 0.194843 24.4228 -1.35411 17.0482 1.26645C12.6644 2.82514 7.91037 5.28008 4.49098 8.47541C0.428631 12.2747 -0.21433 15.5772 0.0487 16.9606C0.993659 21.8704 7.76424 25.0658 10.4725 27.433C10.3361 27.511 10.2094 27.5792 10.1023 27.6376C8.74816 28.3098 3.58499 31.0083 2.29907 33.8626C0.837789 37.0969 2.53287 39.4155 3.65318 39.7272C7.13102 40.6917 10.7063 38.9576 12.6254 36.0935C14.5446 33.2294 14.3108 29.508 13.4242 27.8032C13.4145 27.7837 13.4048 27.7643 13.3853 27.7448C13.736 27.5402 14.0964 27.3259 14.4471 27.1213C15.1388 26.7121 15.8207 26.3322 16.4053 26.0205C16.074 26.9265 15.8305 28.0078 15.7136 29.5665C15.5675 31.398 16.3176 33.775 17.3015 34.7102C17.7399 35.1193 18.2562 35.1291 18.5874 35.1291C19.737 35.1291 20.2533 34.1744 20.828 33.0443C21.5295 31.661 22.1627 30.0536 22.1627 30.0536C22.1627 30.0536 21.3736 34.3984 23.5168 34.3984C24.2961 34.3984 25.0852 33.3853 25.4359 32.869C25.4359 32.8787 25.4359 32.8787 25.4359 32.8787C25.4359 32.8787 25.4554 32.8495 25.4944 32.7813C25.5723 32.6547 25.621 32.5767 25.621 32.5767C25.621 32.5767 25.621 32.567 25.621 32.5572C25.9328 32.0117 26.6342 30.7745 27.6766 28.719C29.0209 26.0692 30.3166 22.7569 30.3166 22.7569C30.3166 22.7569 30.4335 23.5655 30.8329 24.9099C31.0667 25.699 31.5538 26.566 31.9435 27.4038C31.6317 27.8422 31.4369 28.0857 31.4369 28.0857C31.4369 28.0857 31.4369 28.0857 31.4467 28.0955C31.1934 28.4267 30.9206 28.7871 30.6186 29.1379C29.5567 30.4043 28.2903 31.8558 28.1149 32.2747C27.9104 32.7716 27.9591 33.132 28.3487 33.4243C28.6313 33.6386 29.1378 33.6678 29.6542 33.6386C30.6089 33.5704 31.281 33.3366 31.6123 33.1905C32.1286 33.0054 32.7326 32.7229 33.2976 32.304C34.34 31.5343 34.9732 30.4335 34.9147 28.982C34.8855 28.1832 34.6225 27.3843 34.301 26.6342C34.3984 26.4978 34.4861 26.3614 34.5835 26.225C36.2299 23.8188 37.5061 21.1788 37.5061 21.1788C37.5061 21.1788 37.623 21.9873 38.0224 23.3317C38.2172 24.0136 38.6166 24.754 38.9674 25.4749C37.4184 26.7316 36.4637 28.1929 36.1227 29.1476C35.509 30.9206 35.9864 31.7194 36.8923 31.9045C37.3015 31.9922 37.886 31.7974 38.3147 31.6123C38.8602 31.4369 39.5032 31.1349 40.1169 30.6868C41.1593 29.9172 42.1627 28.8456 42.1042 27.3941C42.075 26.7316 41.8997 26.0789 41.6561 25.4457C42.9713 24.9002 44.6663 24.5982 46.829 24.8514C51.4661 25.397 52.3819 28.2903 52.2065 29.508C52.0312 30.7258 51.057 31.3882 50.7355 31.5928C50.414 31.7974 50.3069 31.8656 50.3361 32.0117C50.3751 32.226 50.5309 32.2163 50.8037 32.1773C51.1836 32.1091 53.2392 31.1934 53.3268 28.9528C53.473 26.0887 50.7452 22.9615 45.923 22.9908ZM10.151 35.0511C8.61178 36.7267 6.46857 37.36 5.5431 36.8242C4.54943 36.2494 4.9391 33.775 6.82902 32.002C7.97856 30.9206 9.45932 29.9172 10.4432 29.3035C10.6673 29.1671 10.9985 28.9722 11.3979 28.7287C11.4661 28.6897 11.5051 28.6702 11.5051 28.6702C11.583 28.6215 11.661 28.5728 11.7389 28.5241C12.4306 31.057 11.7681 33.2879 10.151 35.0511ZM21.3541 27.433C20.8183 28.7384 19.698 32.0799 19.0161 31.8948C18.4316 31.7389 18.0711 29.206 18.8992 26.7024C19.3181 25.4457 20.2046 23.9455 20.7209 23.3609C21.5587 22.4257 22.4842 22.114 22.7082 22.4939C22.9907 22.9908 21.6853 26.6147 21.3541 27.433ZM30.5991 31.8558C30.3751 31.9727 30.1607 32.0507 30.0633 31.9922C29.9951 31.9532 30.1607 31.7974 30.1607 31.7974C30.1607 31.7974 31.32 30.5504 31.7779 29.9854C32.0409 29.6542 32.3526 29.2645 32.6839 28.8261C32.6839 28.8651 32.6839 28.9138 32.6839 28.9528C32.6839 30.4433 31.2421 31.4467 30.5991 31.8558ZM37.7301 30.2289C37.5645 30.112 37.5938 29.7224 38.149 28.5046C38.3634 28.0273 38.8699 27.2285 39.737 26.4588C39.8344 26.7706 39.9026 27.0726 39.8928 27.3551C39.8831 29.2353 38.5387 29.9367 37.7301 30.2289Z" fill="#CD6799"/>
</g>
<defs>
<clipPath id="clip0_116_155">
<rect width="53.3658" height="40" fill="white"/>
</clipPath>
</defs>
</svg>
