<svg xmlns="http://www.w3.org/2000/svg" viewBox="0 0 248 45.28"><defs><style>.cls-1{fill:#004ca1;}</style></defs><g id="Layer_2" data-name="Layer 2"><g id="svg2"><g id="g3660"><path id="path86" class="cls-1" d="M116.41.64C89.82-2,51,3.72,23.93,14.64l-1.63.71a8.09,8.09,0,0,1,.85,0c4.5.12,4.23,2.93,4.23,2.93V20H23.79V18.81c0-.82-1-.88-1-.88a.91.91,0,0,0-.94.53,1.3,1.3,0,0,0,.29,1.48,13.28,13.28,0,0,0,2.25,1.26,12,12,0,0,1,1.56.85,3.59,3.59,0,0,1,1.68,3.19v1.37c-.22,3.41-4.93,3.31-4.93,3.31-4.91,0-4.8-3.23-4.8-3.23V25h3.83v1.16a1,1,0,0,0,.95,1,1.08,1.08,0,0,0,1.14-1c.14-1-.94-1.6-.94-1.6L20,23.12A4.54,4.54,0,0,1,18.78,22a3.47,3.47,0,0,1-.59-2V18.91c0-1.48.4-1.9.4-1.9l0,0C-7.88,29.36-4.85,42.23,19.83,44.62c27,2.61,67.63-2.59,95-14.8h-.18s-4.64.38-4.74-3.36V19.25s-.57-4,4.61-4c0,0,3.37-.1,4.28,1.91,0,0,.43.53.32,2.75h-3.6V18.77a.91.91,0,0,0-1-.9s-1,0-1,.8v7.47a1,1,0,1,0,2-.08V23.91h-1v-2h4.63v4.24a3,3,0,0,1-.38,1.42s-.28.4-.44.59l1.5-.75C144.12,15,141.07,3.09,116.41.64M38.06,29.43,36.67,18.85h-.32L35,29.43H31.13L33.5,15.8h6l2.36,13.63Zm19.32,0L57.3,19.17h-.25L55.19,29.44H51.46L49.57,19.17H49.3l0,10.28H45.71L46,15.81h6l1.15,7.46h.28l1.2-7.46h5.94L61,29.45Zm17.29-4.21v1.37c-.22,3.41-4.92,3.31-4.92,3.31-4.92,0-4.8-3.23-4.8-3.23V25h3.81v1.16a1,1,0,0,0,1,1,1.07,1.07,0,0,0,1.14-1c.14-1-.94-1.6-.94-1.6l-2.86-1.51A4.41,4.41,0,0,1,65.83,22a3.47,3.47,0,0,1-.59-2V18.91c0-1.48.4-1.9.4-1.9,1-1.9,4.55-1.67,4.55-1.67,4.51.12,4.23,2.93,4.23,2.93V20H70.85V18.81c0-.82-1-.88-1-.88a.92.92,0,0,0-.94.53,1.29,1.29,0,0,0,.3,1.48,12.9,12.9,0,0,0,2.24,1.26,12.81,12.81,0,0,1,1.58.85,3.57,3.57,0,0,1,1.66,3.19m14,.91c0,3.76-4.75,3.7-4.75,3.7-5.46,0-5.06-3.87-5.06-3.87V15.75h3.9l0,10.31a1,1,0,0,0,1.09,1.1c1,0,1-1.12,1-1.12V15.75h3.81Zm16.4,3.3h-4.25L97.1,21.11h-.16l.21,8.34H93.59V15.81H98l3.65,8.26h.16l-.25-8.26h3.6Z"/><path id="path88" class="cls-1" d="M225.89,21.45H207.45v2.47h18.44Z"/><path id="path90" class="cls-1" d="M178.7,10.77v13h3.18v-5.2h2.7V15.88h-2.7V10.77Z"/><path id="path92" class="cls-1" d="M166.93,24.78h14.95V35.37H166.93Zm11.89,2.58H170v5.42h8.84Z"/><path id="path94" class="cls-1" d="M203.41,10.77v13h-3.12v-5.2h-4.06V15.89h4V10.77Z"/><g id="g96"><path id="path98" class="cls-1" d="M195.58,36c-4.58,0-8.28-2.68-8.28-6s3.7-6,8.28-6,8.29,2.68,8.29,6-3.71,6-8.29,6m5.16-6c0-1.85-2.32-3.35-5.16-3.35s-5.14,1.5-5.14,3.35,2.3,3.35,5.14,3.35,5.16-1.5,5.16-3.35"/><path id="path100" class="cls-1" d="M171.19,11.24s-.41,7,5.25,9.9l-1.63,2.27s-4.15-2.76-5.09-5.75c-.94,3-5.1,5.75-5.1,5.75L163,21.14c5.68-2.89,5.26-9.9,5.26-9.9Z"/><path id="path102" class="cls-1" d="M190.86,17.66c-.94,3-4.74,5.51-4.74,5.51l-1.64-2.26c5.33-2.66,4.91-9.67,4.91-9.67h2.93s-.41,7,4.92,9.67l-1.64,2.26s-3.8-2.52-4.74-5.51"/></g><path id="path104" class="cls-1" d="M242.12,10.77v16h3.18V18.52H248V15.88h-2.7V10.77Z"/><g id="g106"><path id="path108" class="cls-1" d="M234.62,11.24s-.42,7,5.26,9.9l-1.64,2.27s-4.16-2.76-5.1-5.75c-.94,3-5.09,5.75-5.09,5.75l-1.63-2.27c5.67-2.89,5.26-9.9,5.26-9.9Z"/></g><path id="path110" class="cls-1" d="M233.88,24.77h-3v10.6h3Z"/><path id="path112" class="cls-1" d="M232.46,35.37h12.82V32.74H232.46Z"/><path id="path114" class="cls-1" d="M218.1,25.78h-2.87V23.65h2.87Z"/><path id="path116" class="cls-1" d="M224.16,11.45h-15v2.4h15Z"/><path id="path118" class="cls-1" d="M224.16,17.54h-15V20h15Z"/><path id="path120" class="cls-1" d="M224.16,25.3h-15v2.4h15Z"/><path id="path122" class="cls-1" d="M224.16,29h-15v2.4h15Z"/><path id="path124" class="cls-1" d="M224.16,33h-15v2.41h15Z"/><path id="path126" class="cls-1" d="M224.16,26.35h-3v5h3Z"/><path id="path128" class="cls-1" d="M224.16,13.51h-3v5h3Z"/><path id="path130" class="cls-1" d="M212.19,29.56h-3v5h3Z"/><path id="path132" class="cls-1" d="M212.19,13.13h-3v5h3Z"/></g></g></g></svg>