<svg xmlns="http://www.w3.org/2000/svg" viewBox="0 0 432.92 118.25"><defs><style>.cls-1{fill:#e20177;}.cls-2{fill:#f1f3c2;}.cls-3{fill:#b10342;}.cls-4{fill:#006563;}.cls-5{fill:#6cb33f;}.cls-6{fill:#e31937;}.cls-7{fill:#0065a4;}.cls-8{fill:#939598;}.cls-9{fill:#d2d2d2;}.cls-10{fill:#0082c4;}.cls-11{fill:#00578e;}.cls-12{fill:#f47a3f;}.cls-13{fill:#5a5b5d;}.cls-14{fill:#aa273e;}.cls-15{fill:#72bf44;}.cls-16{fill:#ccb09e;}.cls-17{fill:#ed1c24;}.cls-18{fill:#ced41e;}.cls-19{fill:#ffd200;}.cls-20{fill:#d3af7e;}.cls-21{fill:#bcbec0;}.cls-22{fill:#fbb040;}.cls-23{fill:#fff;}</style></defs><g id="Layer_2" data-name="Layer 2"><g id="Layer_1-2" data-name="Layer 1"><path d="M169.33,23.84h0c-19.68,0-34,15.54-34,35.24s14.35,34.76,34,34.76a35.9,35.9,0,0,0,28.11-13.45c-.74-.69-2.62-4.72-9-4.72-6,0-7.32,6-19.15,6-11.58,0-21.19-9.83-21.19-22.58s9.61-23,21.19-23c10.56,0,13.1,6.28,18.52,6.28s8.6-4.34,9.35-5a35.43,35.43,0,0,0-27.87-13.45"/><path d="M238.74,25.88H211.07c-4.67,0-7.95,2.8-7.95,7.26v4.08h12.34s.47,41.68-.06,46.17v0c-.18,3.43-1.66,11.66-9.58,15.37-6.51,3.06-6.58,6-6.91,10.49h0c.1.33.23.53.42.54h.11c.24-.07,6.46-1.59,7.36-2l0,0c5.85-1.81,14.79-5.82,19-14.11,0,0,4-6.15,3.93-19.34V37.22h.57c4.69,0,8.42-2.81,8.42-7.27V25.87"/><polygon class="cls-1" points="26.7 26.7 5.07 36.65 13.27 59.12 26.7 45.7 26.7 26.7"/><polygon class="cls-2" points="13.26 59.12 26.7 72.55 26.7 45.7 13.26 59.12"/><path class="cls-3" d="M59.13,13.27,81.6,5.07A58.39,58.39,0,0,0,59.13.59Z"/><path class="cls-1" d="M81.6,5.07l10,21.63,9-9A58.48,58.48,0,0,0,81.6,5.07"/><path class="cls-4" d="M100.51,17.74l-9,9,21.68,10.09a58.79,58.79,0,0,0-12.72-19"/><path class="cls-5" d="M13.26,59.12,5.07,36.65A58.35,58.35,0,0,0,.59,59.12Z"/><path class="cls-6" d="M5.07,36.65,26.7,26.7l-9-8.95A58.6,58.6,0,0,0,5.07,36.65"/><path class="cls-7" d="M17.74,17.75l9,9L36.79,5a58.34,58.34,0,0,0-19,12.73"/><path class="cls-8" d="M59.13.59A58.39,58.39,0,0,0,36.8,5l22.33,8.26Z"/><path class="cls-9" d="M5.07,36.65Z"/><path class="cls-10" d="M.59,59.12A58.39,58.39,0,0,0,5,81.45l8.25-22.33Z"/><path class="cls-9" d="M81.46,113.24h0Z"/><path class="cls-11" d="M59.13,117.65a58.19,58.19,0,0,0,22.32-4.42L59.13,105Z"/><path class="cls-12" d="M81.46,113.23a58.51,58.51,0,0,0,19-12.73l-9-9Z"/><path class="cls-13" d="M91.55,91.55l9,9a58.38,58.38,0,0,0,12.67-18.9Z"/><path class="cls-9" d="M113.18,81.6h0Z"/><path class="cls-14" d="M105,59.12l8.2,22.48a58.58,58.58,0,0,0,4.47-22.48Z"/><path class="cls-9" d="M36.65,113.18h0Z"/><path class="cls-12" d="M5,81.45a58.6,58.6,0,0,0,12.73,19l9-9Z"/><path class="cls-15" d="M17.74,100.5a58.69,58.69,0,0,0,18.91,12.67L26.7,91.55Z"/><path class="cls-3" d="M59.13,105l-22.47,8.2a58.31,58.31,0,0,0,22.47,4.47Z"/><path class="cls-16" d="M117.65,59.12a58.34,58.34,0,0,0-4.41-22.32L105,59.12Z"/><polygon class="cls-12" points="59.13 13.27 59.13 13.27 36.79 5.01 26.7 26.7 45.69 26.7 59.13 13.27"/><polygon class="cls-6" points="26.7 91.55 36.65 113.18 59.13 104.98 45.69 91.55 26.7 91.55"/><polygon class="cls-17" points="91.56 45.69 104.98 59.12 113.24 36.8 113.23 36.79 91.56 26.7 91.56 45.69"/><polygon class="cls-18" points="91.56 91.55 113.18 81.6 104.98 59.12 91.56 72.55 91.56 91.55"/><polygon class="cls-19" points="72.56 26.7 91.56 26.7 81.6 5.07 81.6 5.07 59.13 13.27 72.56 26.7"/><polygon class="cls-20" points="26.7 72.55 13.27 59.12 5.01 81.45 26.7 91.55 26.7 72.55"/><polygon class="cls-1" points="59.13 104.98 81.46 113.24 91.56 91.55 72.55 91.55 59.13 104.98"/><polygon class="cls-18" points="45.69 26.7 26.7 26.7 26.7 45.7 45.69 26.7"/><polygon class="cls-21" points="26.7 72.55 26.7 91.55 45.69 91.55 26.7 72.55"/><polygon class="cls-10" points="91.56 26.7 72.55 26.7 91.56 45.69 91.56 26.7"/><polygon class="cls-16" points="72.55 91.55 91.56 91.55 91.56 72.55 72.55 91.55"/><polygon class="cls-1" points="72.56 26.7 59.13 13.27 45.69 26.7 72.56 26.7"/><polygon class="cls-22" points="45.69 91.55 59.13 104.98 72.55 91.55 45.69 91.55"/><polygon class="cls-12" points="91.56 72.55 104.98 59.12 91.56 45.69 91.56 72.55"/><path class="cls-23" d="M117.05,59.72A57.75,57.75,0,0,1,113.21,80l-7.37-20.24h11.21Zm-24.9,30.9V72.8l12.59-12.6,7.69,21.08Zm8.36,9-7.93-7.92,19.46-9a57.94,57.94,0,0,1-11.53,16.89M82.64,112.11l9.09-19.53,7.94,7.93a58,58,0,0,1-17,11.6m-22.92-6.28,20.11,7.44a58,58,0,0,1-20.11,3.79Zm-21.43,7.38,20.24-7.38v11.23a58,58,0,0,1-20.24-3.85M27.62,92.14H45.45L58,104.74,37,112.43Zm-9,8.37,7.93-7.93,9,19.46a58.07,58.07,0,0,1-16.89-11.53M6.17,82.66l19.5,9.07-7.93,7.93a57.7,57.7,0,0,1-11.57-17M5.81,59.72h6.6L9.8,66.8,5,79.8a57.71,57.71,0,0,1-3.8-20.08ZM1.19,58.53a57.89,57.89,0,0,1,3.86-20.2l7.36,20.2H1.19ZM26.1,27.63V45.45L13.51,58,5.82,37Zm-8.34-9,7.91,7.92L6.25,35.45A58.41,58.41,0,0,1,17.76,18.6M35.59,6.18l-9.07,19.5L18.6,17.76a58.3,58.3,0,0,1,17-11.58m1.52-.42L58.05,13.5,45.45,26.1H27.63ZM58.53,1.19V12.41L38.47,5a57.81,57.81,0,0,1,20.06-3.8M79.94,5,59.72,12.41V1.19A57.58,57.58,0,0,1,79.94,5m11.8,20.63L82.79,6.23A57.83,57.83,0,0,1,99.67,17.75Zm20.33,9.92L92.58,26.52l7.93-7.93a57.67,57.67,0,0,1,11.56,17M92.15,47.13l12,12-12,12ZM60.2,104.75l12.6-12.6H90.62l-9.47,20.34Zm-1.07-12.6h12l-12,12-12-12ZM27.29,27.29h17l-17,17Zm0,45V45.94l9.32-9.32,9.33-9.33H72.31L91,45.94V72.31L72.31,91H45.94Zm0,18.64V74l17,17ZM13.5,60.2,26.1,72.8h0V90.62L5.76,81.15l3-8ZM26.1,71.12l-12-12,12-12v24ZM81.29,5.81,90.62,26.1H72.8L60.2,13.51,72.88,8.88ZM71.12,26.1h-24l12-12ZM91,44.26l-17-17H91ZM86,91H74L91,74V91ZM112.5,37.1l-2.63,7.09-5.12,13.86-12.6-12.6V27.63l16.37,7.62Zm-.06,21.43h-6.6l7.42-20.06a57.5,57.5,0,0,1,3.79,20.06Zm5.8,0A58.83,58.83,0,0,0,114.34,38l0,0-.58-1.41h0l-.57-1.39v0a58.62,58.62,0,0,0-11.85-17.44h0l-.84-.84h0A58.91,58.91,0,0,0,83.21,5.12l0,0-1.39-.58h0l-1.41-.58,0,0A58.75,58.75,0,0,0,59.72,0H58.53A58.55,58.55,0,0,0,36.79,4.38l-.3-.12-.15.3A59.45,59.45,0,0,0,4.63,36.2l-.3.14.11.31A58.64,58.64,0,0,0,0,58.53H0v1.19H0A58.94,58.94,0,0,0,3.9,80.28h0l.58,1.41h0L5,83.09v0A59,59,0,0,0,16.9,100.51h0l.32.32a.94.94,0,0,1,.1.1l.42.42h0a59,59,0,0,0,18.48,12.31l.12.26.27-.09a58.85,58.85,0,0,0,21.92,4.41h1.19a58.91,58.91,0,0,0,21.78-4.35l.26.1.13-.26A59.58,59.58,0,0,0,113.66,82l.26-.12-.09-.27a59.25,59.25,0,0,0,4.41-21.92h0V58.53Z"/><path d="M286.2,93.9a38.8,38.8,0,0,1-10.31-1.32,30.16,30.16,0,0,1-8.62-3.9,34.78,34.78,0,0,1-7-5.75,31.92,31.92,0,0,1-5.11-7.32,34.79,34.79,0,0,1-3.21-8.17,36.27,36.27,0,0,1,0-17.49,37.81,37.81,0,0,1,3.21-8.31,34.24,34.24,0,0,1,5.1-7.31,35.17,35.17,0,0,1,7-5.89,29.33,29.33,0,0,1,8.62-3.87,37.81,37.81,0,0,1,20.53,0,31.52,31.52,0,0,1,8.76,3.87,35.76,35.76,0,0,1,12.14,13.2A40.42,40.42,0,0,1,320.47,50a36.27,36.27,0,0,1,0,17.49,36.87,36.87,0,0,1-3.14,8.17,33.83,33.83,0,0,1-5.18,7.32,35.53,35.53,0,0,1-7,5.75,31.92,31.92,0,0,1-8.76,3.9A38.46,38.46,0,0,1,286.2,93.9ZM286.27,35a27,27,0,0,0-6.36,1,20.55,20.55,0,0,0-5.38,2.41,23.5,23.5,0,0,0-4.42,3.8,21.39,21.39,0,0,0-3.25,4.77,24.62,24.62,0,0,0-2.08,5.68,27.62,27.62,0,0,0,0,12.27,22.72,22.72,0,0,0,2.07,5.46,20.33,20.33,0,0,0,3.25,4.81,20.63,20.63,0,0,0,4.42,3.62,19.43,19.43,0,0,0,5.39,2.49,24.4,24.4,0,0,0,12.62,0,20.38,20.38,0,0,0,9.72-6.07,23.42,23.42,0,0,0,3.29-4.84,24.32,24.32,0,0,0,2-5.47,29.68,29.68,0,0,0,.77-6.18,30.3,30.3,0,0,0-.77-6.09,26.71,26.71,0,0,0-2-5.69,24,24,0,0,0-3.28-4.76,23.5,23.5,0,0,0-4.32-3.81,20.54,20.54,0,0,0-5.4-2.4A27.22,27.22,0,0,0,286.27,35Z"/><path d="M321.09,58.7A34.87,34.87,0,0,1,320,67.33a36.24,36.24,0,0,1-3.1,8.08,33.25,33.25,0,0,1-5.11,7.22A35.18,35.18,0,0,1,305,88.3a31.19,31.19,0,0,1-8.64,3.85,37.52,37.52,0,0,1-10.11,1.3A37.91,37.91,0,0,1,276,92.15a29.28,29.28,0,0,1-8.49-3.85,34.27,34.27,0,0,1-6.95-5.67,31.63,31.63,0,0,1-5-7.22,34.18,34.18,0,0,1-3.17-8.08,35.7,35.7,0,0,1,0-17.27,36.9,36.9,0,0,1,3.17-8.21,33.48,33.48,0,0,1,5-7.22,34.91,34.91,0,0,1,6.95-5.82A28.94,28.94,0,0,1,276,25a37.49,37.49,0,0,1,20.3,0A30.81,30.81,0,0,1,305,28.81a35.86,35.86,0,0,1,6.87,5.82,35.31,35.31,0,0,1,5.11,7.22,39.23,39.23,0,0,1,3.1,8.21A35,35,0,0,1,321.09,58.7Zm-57.45,0a27,27,0,0,0,.71,6.27,22.79,22.79,0,0,0,2.11,5.57,20.48,20.48,0,0,0,3.31,4.9,21,21,0,0,0,4.52,3.7,19.54,19.54,0,0,0,5.5,2.54,25,25,0,0,0,12.86,0,20.76,20.76,0,0,0,5.53-2.47,20.44,20.44,0,0,0,4.41-3.73,24,24,0,0,0,3.35-4.94A24.86,24.86,0,0,0,308,65a29.88,29.88,0,0,0,.78-6.27,30.49,30.49,0,0,0-.78-6.2,27.64,27.64,0,0,0-2-5.79,24.81,24.81,0,0,0-3.35-4.86A24.05,24.05,0,0,0,298.18,38a20.15,20.15,0,0,0-5.53-2.47,21.38,21.38,0,0,0-12.86,0,20.23,20.23,0,0,0-5.5,2.47,24.11,24.11,0,0,0-4.52,3.87,22,22,0,0,0-3.31,4.86,25.25,25.25,0,0,0-2.11,5.79A27.29,27.29,0,0,0,263.64,58.7Z"/><path d="M373.76,91.36l-32.14-39a9.06,9.06,0,0,1-.93-1.12,13,13,0,0,1-.8-1.28,8.34,8.34,0,0,1-.65-.83V84.85a7.53,7.53,0,0,1-.49,2.85,4.92,4.92,0,0,1-1.43,2A7.1,7.1,0,0,1,334.87,91a10.92,10.92,0,0,1-3.12.41H326.3V32.19a6.49,6.49,0,0,1,.42-2.77,5.56,5.56,0,0,1,1.57-2.15,6.41,6.41,0,0,1,2.46-1.18,13.35,13.35,0,0,1,3.46-.41h2l31.5,38.51c.35.56.69,1,1,1.5s.71.9,1.07,1.31l.92,1.64V32.19a6.78,6.78,0,0,1,.38-2.76,5.38,5.38,0,0,1,1.38-2.08,6.54,6.54,0,0,1,2.29-1.19,12.22,12.22,0,0,1,3.14-.47h5.75V84.85a8.51,8.51,0,0,1-.41,2.82,4.37,4.37,0,0,1-1.37,2A5.56,5.56,0,0,1,379.4,91a13.38,13.38,0,0,1-3.38.37Z"/><path d="M326.74,90.91V32.19a6.28,6.28,0,0,1,.39-2.6,5.24,5.24,0,0,1,1.45-2,5.89,5.89,0,0,1,2.29-1.09,12.87,12.87,0,0,1,3.34-.39H336l31.37,38.35c.32.52.67,1,1,1.48s.72.91,1.09,1.34.57,1,.84,1.55l.85,1.55V32.19a6.46,6.46,0,0,1,.36-2.6,4.91,4.91,0,0,1,1.26-1.91,6.06,6.06,0,0,1,2.12-1.09,12.16,12.16,0,0,1,3-.46h5.29V84.85a8.23,8.23,0,0,1-.39,2.68,4,4,0,0,1-1.24,1.83,5,5,0,0,1-2.29,1.2,13.47,13.47,0,0,1-3.27.35h-2L342,52.07a9,9,0,0,1-.92-1.09,13.26,13.26,0,0,1-.77-1.23,9.48,9.48,0,0,1-.81-1.1,8.64,8.64,0,0,1-.67-1.23V84.85a7.22,7.22,0,0,1-.46,2.68,4.65,4.65,0,0,1-1.3,1.83,6.65,6.65,0,0,1-2.3,1.16,10.42,10.42,0,0,1-3,.39Z"/><path d="M390.79,91.36V32.19a6.49,6.49,0,0,1,.42-2.77,5.56,5.56,0,0,1,1.57-2.15,6.46,6.46,0,0,1,2.47-1.18,13.3,13.3,0,0,1,3.46-.41h33.08v3.63a9.36,9.36,0,0,1-.55,3.36,7.08,7.08,0,0,1-1.55,2.45,6.53,6.53,0,0,1-2.8,1.63,13.19,13.19,0,0,1-3.65.47h-19.5v18a5.15,5.15,0,0,1,.56-.47,9.9,9.9,0,0,1,1.85-1,12.18,12.18,0,0,1,2-.45,16.84,16.84,0,0,1,2.14-.15h19.2v2.43a11.26,11.26,0,0,1-.56,3.71A7.62,7.62,0,0,1,427.3,62a6.76,6.76,0,0,1-2.75,1.78,11,11,0,0,1-3.64.55H403.74V82a6.3,6.3,0,0,1,.55-.48,8.24,8.24,0,0,1,1.86-1.08,10.05,10.05,0,0,1,2-.45,15.18,15.18,0,0,1,2.14-.15h22.65v3.06a9.92,9.92,0,0,1-.55,3.39,8.68,8.68,0,0,1-1.53,2.61,6.86,6.86,0,0,1-2.79,1.89,10.84,10.84,0,0,1-3.68.59Z"/><path d="M424.37,90.91H391.24V32.19a6,6,0,0,1,.39-2.6,5.1,5.1,0,0,1,1.44-2,6,6,0,0,1,2.29-1.09,13,13,0,0,1,3.35-.39h32.64v3.18a8.9,8.9,0,0,1-.53,3.2,6.56,6.56,0,0,1-1.45,2.29,6,6,0,0,1-2.6,1.52,12.38,12.38,0,0,1-3.53.46H403.29V56.51a4.64,4.64,0,0,1,1.27-1.41,9.24,9.24,0,0,1,1.76-1,10.93,10.93,0,0,1,1.87-.43,15.79,15.79,0,0,1,2.08-.14H429v2a10.63,10.63,0,0,1-.53,3.56A7.16,7.16,0,0,1,427,61.66a6.39,6.39,0,0,1-2.57,1.66,10.63,10.63,0,0,1-3.49.52H403.29V83.3a5,5,0,0,1,1.27-1.45,8,8,0,0,1,1.76-1,10.07,10.07,0,0,1,1.87-.42,15.79,15.79,0,0,1,2.08-.14h22.2v2.61a9.25,9.25,0,0,1-.52,3.24,8.29,8.29,0,0,1-1.45,2.47,6.24,6.24,0,0,1-2.61,1.76A10.4,10.4,0,0,1,424.37,90.91Z"/></g></g></svg>