<svg width="160" height="160" viewBox="0 0 29 40" fill="none" xmlns="http://www.w3.org/2000/svg">
<g clip-path="url(#clip0_116_159)">
<path d="M28.3386 7.86096L25.7569 36.7828L14.152 40L2.57898 36.7873L0 7.86096H28.3386Z" fill="#264DE4"/>
<path d="M23.5467 34.9411L25.7529 10.2261H14.1693V37.5408L23.5467 34.9411Z" fill="#2965F1"/>
<path d="M5.91226 20.9545L6.23023 24.5021H14.1693V20.9545H5.91226Z" fill="#EBEBEB"/>
<path d="M14.1693 13.7738H14.157H5.27338L5.59588 17.3215H14.1693V13.7738Z" fill="#EBEBEB"/>
<path d="M14.1693 33.8593V30.1682L14.1538 30.1723L10.2027 29.1055L9.95009 26.276H8.03017H6.38876L6.88579 31.8464L14.153 33.8638L14.1693 33.8593Z" fill="#EBEBEB"/>
<path d="M6.66931 0H10.9662V1.79688H8.46619V3.59375H10.9662V5.39063H6.66931V0Z" fill="black"/>
<path d="M11.8256 0H16.1224V1.5625H13.6224V1.875H16.1224V5.46875H11.8256V3.82812H14.3256V3.51562H11.8256V0Z" fill="black"/>
<path d="M16.9818 0H21.2787V1.5625H18.7787V1.875H21.2787V5.46875H16.9818V3.82812H19.4818V3.51562H16.9818V0Z" fill="black"/>
<path d="M18.5256 24.5021L18.1138 29.1032L14.157 30.1712V33.8621L21.43 31.8464L21.4834 31.247L22.317 21.9071L22.4036 20.9544L23.0441 13.7738H14.157V17.3215H19.1561L18.8333 20.9544H14.157V24.5021H18.5256Z" fill="white"/>
</g>
<defs>
<clipPath id="clip0_116_159">
<rect width="28.3386" height="40" fill="white"/>
</clipPath>
</defs>
</svg>
