<svg width="40" height="40" viewBox="0 0 40 40" fill="none" xmlns="http://www.w3.org/2000/svg">
<path d="M8.40967 36.7873L5.83069 7.86096H34.1693L31.5876 36.7828L19.9826 40L8.40967 36.7873Z" fill="#E44D26"/>
<path d="M20 37.5408L29.3773 34.9411L31.5836 10.2261H20V37.5408Z" fill="#F16529"/>
<path d="M20 20.9544H15.3055L14.9813 17.3215H20V13.7738H19.9877H11.1041L11.189 14.7256L12.0609 24.5021H20V20.9544Z" fill="#EBEBEB"/>
<path d="M20 30.1682L19.9845 30.1723L16.0334 29.1055L15.7808 26.276H13.8609H12.2195L12.7165 31.8464L19.9837 33.8638L20 33.8593V30.1682Z" fill="#EBEBEB"/>
<path d="M8.46735 0H10.2702V1.78125H11.9195V0H13.7224V5.39406H11.9195V3.58781H10.2703V5.39406H8.46742L8.46735 0Z" fill="black"/>
<path d="M16.0933 1.78875H14.5061V0H19.4842V1.78875H17.8963V5.39406H16.0934L16.0933 1.78875Z" fill="black"/>
<path d="M20.2743 0H22.1542L23.3106 1.89531L24.4659 0H26.3465V5.39406H24.551V2.72047L23.3106 4.63836H23.2796L22.0384 2.72047V5.39406H20.2743V0Z" fill="black"/>
<path d="M27.2437 0H29.0472V3.61109H31.5826V5.39406H27.2437V0Z" fill="black"/>
<path d="M19.9877 20.9545V24.5021H24.3563L23.9445 29.1032L19.9877 30.1712V33.8621L27.2607 31.8464L27.3141 31.247L28.1477 21.9071L28.2343 20.9545H27.2783H19.9877Z" fill="white"/>
<path d="M19.9877 13.7738V15.9772V17.3129V17.3215H28.5457H28.5571L28.6283 16.5241L28.7899 14.7256L28.8748 13.7738H19.9877Z" fill="white"/>
</svg>
