<svg width="160" height="160" viewBox="0 0 162 228" fill="none" xmlns="http://www.w3.org/2000/svg">
<path d="M15.4929 208.83L0.886719 44.6243H161.383L146.761 208.805L81.0367 227.068L15.4929 208.83Z" fill="#E44D26"/>
<path d="M81.1348 213.108L134.244 198.35L146.739 58.0505H81.1348V213.108Z" fill="#F16529"/>
<path d="M81.1348 118.952H54.5472L52.711 98.3294H81.1348V78.1899H81.0653H30.7524L31.2334 83.593L36.1717 139.091H81.1348V118.952Z" fill="#EBEBEB"/>
<path d="M81.1347 171.256L81.0466 171.279L58.6695 165.223L57.239 149.161H46.3655H37.0693L39.8843 180.783L81.0422 192.235L81.1347 192.209V171.256Z" fill="#EBEBEB"/>
<path d="M15.8193 0H26.0301V10.1116H35.3705V0H45.5816V30.6205H35.3709V20.3669H26.0305V30.6205H15.8198L15.8193 0Z" fill="black"/>
<path d="M59.0091 10.1542H50.02V0H78.2138V10.1542H69.2207V30.6205H59.0095L59.0091 10.1542Z" fill="black"/>
<path d="M82.6885 0H93.3355L99.8848 10.7591L106.428 0H117.078V30.6205H106.91V15.4433L99.8848 26.3306H99.7092L92.6793 15.4433V30.6205H82.6885V0Z" fill="black"/>
<path d="M122.16 0H132.374V20.4991H146.733V30.6205H122.16V0Z" fill="black"/>
<path d="M81.0654 118.952V139.091H105.807L103.475 165.21L81.0654 171.273V192.225L122.256 180.783L122.558 177.38L127.28 124.36L127.77 118.952H122.356H81.0654Z" fill="white"/>
<path d="M81.0654 78.1899V90.6982V98.2802V98.3294H129.534H129.598L130.001 93.8027L130.917 83.593L131.397 78.1899H81.0654Z" fill="white"/>
</svg>
