<svg xmlns="http://www.w3.org/2000/svg" viewBox="0 0 391.94 80.8"><defs><style>.cls-1{fill:#e41e26;}</style></defs><g id="Layer_2" data-name="Layer 2"><g id="Layer_1-2" data-name="Layer 1"><path class="cls-1" d="M17.35,65q-4.82-25.5-9.64-51.72,0,26.32,0,52.64L0,66.64V1.34l14.33,0q3.44,19.13,6.86,37.89Q24.82,20,28.47,1.29l14.37,0-.09,61.53c-3.08.24-6.17.49-9.25.75l.06-50.77q-5,25.47-9.92,51.62Z"/><path class="cls-1" d="M62.28,15.94c4.43-.08,7.88,2.08,10.35,6.4s3.7,9.75,3.69,16.31S75,50.58,72.42,55.07s-6,6.9-10.28,7.21-7.44-1.65-9.91-5.88-3.71-9.83-3.69-16.75a39.08,39.08,0,0,1,1.7-12.29,21.83,21.83,0,0,1,4.62-8.22A10,10,0,0,1,62.28,15.94Zm.22,8.58q-2.45.07-3.68,3T57.57,39.09q0,7.94,1.15,11.31c.78,2.26,2,3.33,3.66,3.23,1.46-.09,2.63-1.13,3.54-3.13s1.36-5.71,1.37-11.17q0-8.71-1.17-11.79T62.5,24.52Z"/><path class="cls-1" d="M104.13,16.2q-5,21.42-10,43.21l-6.67.36q-5-21.39-9.91-43.18l8.92-.14Q89.21,30.14,92,43.71q2.89-13.78,5.79-27.43Z"/><path class="cls-1" d="M116.45,0q0,6.24,0,12.49l-8.58.08,0-12.57Zm0,16.05q0,21.17-.07,42.32l-8.59.37.08-42.59Z"/><path class="cls-1" d="M149.55,38.58q-9.36.15-18.72.36,0,1.13,0,2c0,3,.54,5.23,1.65,6.73a4.65,4.65,0,0,0,4,2.17c2.86-.08,4.59-2.31,5.17-6.7l7.77.68q-3.27,14.44-13.24,14.76a10.89,10.89,0,0,1-7.38-2.27,17.33,17.33,0,0,1-5-7.18,30.21,30.21,0,0,1-2-11.55q0-10.07,4-16.29c2.65-4.15,6-6.22,10.19-6.25q5.61,0,9.62,5.59T149.55,38.58Zm-18.73-6.82,10.33-.18q-.39-8.56-4.91-8.53Q131.41,23.11,130.82,31.76Z"/><path class="cls-1" d="M217.28,1.14Q212.36,29,207.43,56.77q-4.53,0-9.06,0Q195.15,38.35,191.91,20q-3.12,18.39-6.25,36.81c-3,0-6,0-9,.06Q171.64,29,166.6,1.14H176q2.7,17,5.4,34c0,.17.13.76.32,1.8.08.38.18,1,.32,1.71q3.22-18.75,6.44-37.47H197q3.3,18.72,6.61,37.44c.14-.7.33-1.87.58-3.5q2.78-17,5.56-33.94Z"/><path class="cls-1" d="M245.87,38.64q-9.36-.16-18.72-.27c0,.74,0,1.38,0,1.93,0,2.94.56,5.17,1.66,6.69a4.94,4.94,0,0,0,4,2.31c2.86.05,4.58-2.09,5.15-6.44l7.78,1c-2.16,9.58-6.57,14.25-13.21,14.12a11.56,11.56,0,0,1-7.4-2.6,18.35,18.35,0,0,1-5-7.27,29.69,29.69,0,0,1-2-11.37q0-9.84,4-15.86t10.18-6q5.61,0,9.63,5.71T245.87,38.64ZM227.11,31.3l10.34.1q-.4-8.53-4.93-8.57Q227.69,22.79,227.11,31.3Z"/><path class="cls-1" d="M259.81,1.16l0,20q2.3-6.12,7.18-6.08t7.93,6c1.94,3.95,2.92,9.37,2.94,16.22q0,9.91-3,15.88c-2,4-4.86,5.87-8.62,5.74a7.8,7.8,0,0,1-4.78-1.63q-1.84-1.51-3.72-6-.81,1.19-1.91,6.36l-4.58-.13q0-28.18-.08-56.37Zm.06,40a13.8,13.8,0,0,0,1.29,6.67c.86,1.52,1.88,2.3,3.07,2.33,1.42,0,2.59-.83,3.51-2.62s1.37-5.32,1.36-10.57q0-9-1.44-11.29c-1-1.55-2-2.32-3.24-2.34-1.4,0-2.52.82-3.34,2.53a17.07,17.07,0,0,0-1.22,7.28Q259.86,37.2,259.87,41.2Z"/><path class="cls-1" d="M317.75,1.22Q324,30.89,330.16,61.37l-9.89-.65q-1.22-6.21-2.44-12.37-6.34-.33-12.7-.61-1.22,6-2.44,11.93l-8.07-.43q6.24-28.7,12.48-58ZM307.32,37l8.32.31q-2.08-10.47-4.17-20.85Q309.4,26.76,307.32,37Z"/><path class="cls-1" d="M334,76.73Q334,46.85,333.9,17l7.88.16q0,3.3,0,6.61c1.45-5,4-7.47,7.64-7.4,3.15.07,5.72,2.1,7.73,6.15s3,9.93,3,17.58c0,8.14-1,14.21-3,18.17s-4.64,5.78-7.88,5.52-5.61-2.43-7-6.49l0,20.24Zm8.25-34.23a39,39,0,0,0,.38,6.64,7.91,7.91,0,0,0,1.59,3.38,3.67,3.67,0,0,0,2.62,1.63c1.16.08,2.21-.78,3.12-2.6s1.38-5.94,1.37-12.36q0-13.53-4.57-13.66c-1.15,0-2.19.72-3.13,2.27s-1.4,4.21-1.39,8C342.25,38,342.25,40.27,342.26,42.5Z"/><path class="cls-1" d="M365.75,79.87q0-31.11-.07-62.23l7.88.2q0,3.43,0,6.89c1.45-5.19,4-7.77,7.64-7.69,3.15.08,5.72,2.22,7.72,6.46s3,10.4,3,18.41c0,8.52-1,14.86-3,19s-4.64,6-7.88,5.67-5.6-2.62-7-6.87q0,10.56,0,21.11C371.28,80.48,368.51,80.18,365.75,79.87ZM374,44.32a42.66,42.66,0,0,0,.37,6.92A8.56,8.56,0,0,0,376,54.79a3.76,3.76,0,0,0,2.61,1.73c1.17.09,2.21-.8,3.13-2.69s1.37-6.19,1.37-12.9q0-14.12-4.55-14.29c-1.15,0-2.19.74-3.13,2.36s-1.4,4.38-1.4,8.33Q374,40.82,374,44.32Z"/></g></g></svg>