<svg width="49" height="26" viewBox="0 0 49 26" fill="none" xmlns="http://www.w3.org/2000/svg">
<g clip-path="url(#clip0_116_186)">
<path d="M13.2645 0.369263L17.7898 15.5517L22.3154 0.369263H25.5923H34.5857V1.87817L29.9665 9.73132C31.5891 10.2454 32.8173 11.1798 33.6494 12.535C34.4815 13.8902 34.898 15.481 34.898 17.3076C34.898 19.5675 34.2887 21.4662 33.0725 23.0064C31.8542 24.5458 30.2788 25.3149 28.3433 25.3149C26.8869 25.3149 25.6175 24.8578 24.5358 23.9442C23.4534 23.0315 22.6528 21.7942 22.1325 20.2337L24.6916 19.1864C25.0663 20.1318 25.5609 20.8757 26.1748 21.4197C26.7889 21.9634 27.5117 22.235 28.3435 22.235C29.217 22.235 29.9561 21.7529 30.5601 20.7882C31.1636 19.8236 31.4654 18.6635 31.4654 17.3073C31.4654 15.8092 31.1423 14.6485 30.4979 13.8272C29.7479 12.8629 28.5721 12.3797 26.9704 12.3797H25.722V10.9018L30.0916 3.44867H24.8167L24.5169 3.95339L18.1018 25.3147H17.79L13.108 9.85447L8.42663 25.3147H8.1146L0.62384 0.369263H3.90083L8.42686 15.5517L11.4852 5.32774L9.98723 0.369263H13.2645Z" fill="#0067B1"/>
<path d="M47.5984 0.228088L45.7475 3.86991C45.7475 3.86991 44.9524 2.42235 44.1668 1.75981C43.4191 1.12942 42.4507 0.546246 41.2252 0.671685C40.0406 0.792334 38.7054 1.82047 37.8067 3.53397C36.7858 5.4826 36.4394 7.45723 36.4322 9.63461C36.4218 12.6855 37.5624 14.7676 37.5624 14.7676C37.5624 14.7676 37.3006 13.8001 37.3443 12.1609C37.3725 11.1385 37.3787 10.026 38.1608 7.72658C38.8159 5.80532 40.3131 4.24668 41.6338 3.97756C42.6631 3.76842 43.3206 3.92054 44.3309 4.62277C45.5289 5.45614 46.2507 6.96095 46.2507 6.96095L48.1293 3.41332L47.5984 0.228088ZM47.83 18.2479C47.83 18.2479 46.9996 19.7128 46.4814 20.2768C45.9648 20.8408 45.0379 21.8357 43.8945 22.3333C42.7509 22.8305 42.1518 22.9243 41.0211 22.8171C39.8916 22.7092 38.8422 22.0642 38.4747 21.7953C38.1061 21.5262 37.1672 20.7336 36.6361 19.9952C36.1049 19.256 35.2738 17.7779 35.2738 17.7779C35.2738 17.7779 35.737 19.2594 36.0263 19.888C36.193 20.2499 36.7056 21.3563 37.4328 22.3194C38.1114 23.218 39.4277 24.7652 41.4293 25.1153C43.4307 25.4641 44.807 24.5769 45.1468 24.3622C45.487 24.1474 46.2045 23.5553 46.6584 23.0752C47.1329 22.5753 47.5809 21.9372 47.8298 21.5533C48.0105 21.2742 48.3068 20.707 48.3068 20.707L47.83 18.2479Z" fill="black"/>
</g>
<defs>
<clipPath id="clip0_116_186">
<rect width="49" height="26" fill="white"/>
</clipPath>
</defs>
</svg>
